<svg width="539" height="380" viewBox="0 0 539 380" fill="none" xmlns="http://www.w3.org/2000/svg">
<path d="M165.163 282.971L165.247 283.178C167.922 289.8 169.255 291.908 176.021 294.952L175.527 296.114C168.639 293.361 167.107 293.739 159.451 296.832L76.0633 330.523C69.442 333.198 67.3331 334.532 64.2899 341.297L63.1278 340.804C65.8805 333.915 65.5022 332.383 62.409 324.727L11.7476 199.336C8.65437 191.68 7.86226 190.315 1.09678 187.272L1.59004 186.11C8.47884 188.862 10.9221 188.357 17.5435 185.681L98.241 153.078C105.897 149.984 107.262 149.192 110.305 142.427L111.467 142.92C108.714 149.809 109.22 152.252 111.895 158.873L111.979 159.08C114.654 165.702 115.987 167.811 122.753 170.854L122.26 172.016C115.371 169.263 113.839 169.641 106.183 172.735L45.9702 197.062C42.0388 198.651 38.4376 199.865 35.1228 200.001C37.3277 202.48 38.9559 205.913 40.5442 209.845L49.8238 232.813C51.4122 236.744 52.6265 240.345 52.7623 243.66C55.2411 241.455 58.6751 239.827 62.6065 238.239L117.646 216.001C125.302 212.908 126.667 212.116 129.71 205.35L130.872 205.844C128.12 212.732 128.625 215.176 131.217 221.59C133.892 228.211 135.226 230.32 141.991 233.363L141.498 234.526C134.609 231.773 133.077 232.151 125.421 235.244L70.3813 257.482C66.4499 259.07 62.8487 260.285 59.5339 260.42C61.7389 262.899 63.367 266.333 64.9554 270.265L75.8234 297.164C77.4117 301.095 78.626 304.696 78.7618 308.011C81.2407 305.806 84.6747 304.178 88.6061 302.59L151.509 277.175C159.165 274.082 160.529 273.29 163.573 266.525L164.735 267.018C161.982 273.907 162.488 276.35 165.163 282.971ZM222.442 204.47L276.357 240.212C282.339 244.294 284.746 245.488 292.339 248.197L291.969 249.068C284.13 246.94 282.307 247.195 274.237 250.456C265.547 253.967 263.685 254.719 261.553 261.357L260.474 261.071C262.192 254.6 260.198 253.239 254.217 249.157L232.037 234.771C225.184 230.319 217.957 225.537 214.792 221.28L214.172 221.531C214.73 227.082 213.597 235.001 211.966 242.881L206.005 268.636C204.251 276.806 204.049 278.092 209.573 281.636L208.996 282.592C203.142 279.421 200.782 280.134 193.333 283.143C186.712 285.818 184.396 287.235 180.648 294.045L179.777 293.675C182.943 286.619 183.476 284.959 185.107 277.08L198.074 216.24L152.712 184.985C148.059 181.81 143.741 179.463 136.936 176.917L137.429 175.755C145.146 178.174 146.885 177.712 155.161 174.368C164.059 170.773 165.754 169.607 168.467 163.215L169.629 163.709C167.7 169.061 169.077 171.874 174.852 176.04L188.435 185.234C194.707 189.44 201.895 194.719 205.35 199.1L205.97 198.849C205.206 193.382 206.999 184.714 208.92 176.958L212.634 160.534C213.859 155.226 214.881 151.202 208.736 147.908L209.229 146.746C215.291 149.833 217.65 149.121 225.306 146.027C231.928 143.352 234.243 141.935 237.784 135.209L238.946 135.703C236.026 142.178 235.084 145.206 233.533 152.091L222.442 204.47ZM327.785 273.109C321.164 275.784 319.055 277.117 316.012 283.883L314.849 283.389C317.602 276.501 317.224 274.969 314.131 267.313L263.469 141.921C260.376 134.265 259.584 132.9 252.818 129.857L253.312 128.695C260.2 131.448 262.644 130.942 269.265 128.267L269.472 128.183C276.093 125.508 278.202 124.175 281.826 117.656L282.782 118.233C279.655 124.791 279.826 126.407 282.506 134.23L284.894 141.93L285.392 141.969C285.641 130.075 293.92 115.418 312.749 107.81C337.993 97.6108 364.975 110.778 379.02 145.54C393.148 180.509 382.767 210.217 355.868 221.085C341.383 226.937 325.012 226.331 314.533 215.883L314.202 216.257C318.66 223.121 321.793 230.279 325.388 239.176L333.581 259.454C336.674 267.11 337.466 268.475 344.232 271.518L343.738 272.68C336.85 269.928 334.406 270.433 327.785 273.109ZM345.451 204.835C365.315 196.809 368.352 176.327 359.156 153.566C350.044 131.012 332.68 119.013 315.092 126.119C296.676 133.559 289.651 151.32 300.603 178.427C309.464 200.36 326.001 212.693 345.451 204.835ZM471.459 174.383C441.043 186.672 410.992 173.059 397.365 139.332C383.906 106.018 395.648 74.3166 426.065 62.0275C456.481 49.7383 486.743 64.4694 500.203 97.783C513.829 131.51 501.876 162.094 471.459 174.383ZM464.521 157.209C483.35 149.602 489.992 129.107 480.211 104.897C470.597 81.1019 451.212 71.8448 433.003 79.2015C414.588 86.6419 407.074 106.767 416.688 130.562C426.469 154.772 445.484 164.9 464.521 157.209Z" fill="white"/>
</svg>
