<svg width="759" height="759" viewBox="0 0 759 759" fill="none" xmlns="http://www.w3.org/2000/svg">
<path d="M730.439 237.712C808.747 431.53 715.107 652.132 521.289 730.439C327.47 808.747 106.869 715.107 28.561 521.289C-49.7467 327.471 43.8931 106.869 237.711 28.5612C431.53 -49.7465 652.132 43.8934 730.439 237.712Z" fill="black"/>
<path d="M194.369 367.476L192.95 368.049C187.275 370.342 185.467 371.485 182.859 377.284L181.863 376.861C184.222 370.957 183.898 369.644 181.247 363.081L137.822 255.603C135.171 249.041 134.492 247.871 128.693 245.262L129.116 244.266C135.021 246.626 137.115 246.192 142.79 243.899L144.209 243.326C149.885 241.033 151.692 239.89 154.301 234.091L155.297 234.514C152.937 240.419 153.262 241.732 155.913 248.294L199.337 355.772C201.988 362.335 202.667 363.504 208.466 366.113L208.043 367.109C202.139 364.75 200.044 365.183 194.369 367.476Z" fill="white"/>
<path d="M244.9 248.032L245.187 248.741C247.48 254.417 248.623 256.224 254.422 258.833L253.928 259.652C249.34 257.998 245.895 258.152 241.993 259.729C226.031 266.178 220.572 279.73 226.591 294.628L244.004 337.726C246.655 344.288 247.334 345.458 253.133 348.066L252.71 349.062C246.805 346.703 244.711 347.137 239.213 349.358C233.715 351.579 231.907 352.722 229.299 358.521L228.303 358.098C230.662 352.194 230.338 350.881 227.687 344.318L197.448 269.474C194.796 262.911 194.117 261.742 188.318 259.133L188.741 258.137C194.468 260.568 196.74 260.063 202.061 257.913C207.381 255.764 209.366 254.549 211.798 248.822L212.794 249.244C210.434 255.149 210.758 256.462 213.41 263.024L216.348 270.296L216.951 270.259C215.742 259.606 223.521 249.243 230.54 245.169C235.042 242.525 240.537 239.273 243.609 234.112L244.533 234.358C242.174 240.262 242.607 242.357 244.9 248.032Z" fill="white"/>
<path d="M333.675 314.287C307.604 324.821 281.846 313.153 270.166 284.243C258.629 255.689 268.694 228.516 294.766 217.982C320.837 207.449 346.776 220.075 358.313 248.63C369.993 277.539 359.747 303.754 333.675 314.287ZM327.728 299.567C343.867 293.046 349.561 275.479 341.177 254.728C332.937 234.332 316.321 226.397 300.713 232.703C284.928 239.08 278.488 256.33 286.728 276.727C295.112 297.477 311.411 306.159 327.728 299.567Z" fill="white"/>
<path d="M477.696 257.337L477.273 258.333C471.368 255.974 469.274 256.407 463.776 258.629C458.278 260.85 456.47 261.993 453.862 267.792L452.866 267.369C455.225 261.464 454.901 260.151 452.25 253.589L432.544 204.816C427.313 191.869 417.451 185.332 405.745 190.061C391.202 195.937 385.921 209.418 390.937 221.833L410.571 270.428C413.222 276.991 413.901 278.16 419.7 280.769L419.277 281.765C413.373 279.406 411.278 279.839 405.78 282.06C400.282 284.282 398.475 285.425 395.866 291.224L394.87 290.801C397.229 284.896 396.905 283.583 394.254 277.021L364.015 202.176C361.363 195.614 360.684 194.444 354.885 191.836L355.308 190.84C361.036 193.271 363.307 192.765 368.628 190.616C373.949 188.466 375.934 187.251 378.365 181.524L379.361 181.947C377.001 187.852 377.326 189.165 379.622 195.87L381.809 201.795L382.236 201.829C382.562 193.445 387.632 180.462 404.126 173.798C421.685 166.704 439.259 174.457 447.141 193.967L468.567 246.997C471.218 253.559 471.897 254.729 477.696 257.337Z" fill="white"/>
<path d="M328.163 577.971L328.247 578.178C330.922 584.8 332.255 586.908 339.021 589.952L338.527 591.114C331.639 588.361 330.107 588.739 322.451 591.833L239.063 625.523C232.442 628.198 230.333 629.532 227.29 636.297L226.128 635.804C228.881 628.915 228.502 627.383 225.409 619.727L174.748 494.336C171.654 486.68 170.862 485.315 164.097 482.272L164.59 481.11C171.479 483.862 173.922 483.357 180.543 480.682L261.241 448.078C268.897 444.984 270.262 444.192 273.305 437.427L274.467 437.92C271.714 444.809 272.22 447.252 274.895 453.874L274.979 454.08C277.654 460.702 278.987 462.811 285.753 465.854L285.26 467.016C278.371 464.263 276.839 464.642 269.183 467.735L208.97 492.062C205.039 493.651 201.438 494.865 198.123 495.001C200.328 497.48 201.956 500.914 203.544 504.845L212.824 527.813C214.412 531.744 215.627 535.345 215.762 538.66C218.241 536.455 221.675 534.827 225.607 533.239L280.646 511.001C288.302 507.908 289.667 507.116 292.71 500.35L293.872 500.844C291.12 507.732 291.625 510.176 294.217 516.59C296.892 523.211 298.226 525.32 304.991 528.364L304.498 529.526C297.609 526.773 296.077 527.151 288.421 530.244L233.381 552.482C229.45 554.07 225.849 555.285 222.534 555.42C224.739 557.899 226.367 561.333 227.955 565.265L238.823 592.164C240.412 596.095 241.626 599.696 241.762 603.011C244.241 600.806 247.675 599.178 251.606 597.59L314.509 572.175C322.165 569.082 323.53 568.29 326.573 561.525L327.735 562.018C324.982 568.907 325.488 571.35 328.163 577.971Z" fill="white"/>
<path d="M385.442 499.47L439.357 535.212C445.339 539.294 447.746 540.488 455.339 543.197L454.969 544.068C447.13 541.94 445.307 542.195 437.237 545.456C428.547 548.967 426.685 549.719 424.553 556.357L423.474 556.071C425.192 549.6 423.198 548.239 417.217 544.158L395.037 529.771C388.184 525.32 380.957 520.537 377.792 516.28L377.172 516.531C377.73 522.082 376.597 530.001 374.966 537.881L369.005 563.636C367.252 571.806 367.049 573.092 372.573 576.636L371.996 577.592C366.142 574.421 363.782 575.134 356.333 578.143C349.712 580.818 347.396 582.235 343.648 589.045L342.777 588.675C345.943 581.619 346.476 579.959 348.107 572.08L361.074 511.241L315.712 479.985C311.059 476.81 306.741 474.463 299.936 471.917L300.429 470.755C308.146 473.174 309.885 472.712 318.161 469.368C327.059 465.773 328.754 464.607 331.467 458.215L332.629 458.709C330.7 464.061 332.077 466.875 337.852 471.04L351.435 480.234C357.707 484.44 364.895 489.719 368.35 494.1L368.97 493.849C368.206 488.382 369.999 479.714 371.92 471.958L375.634 455.534C376.859 450.226 377.881 446.202 371.736 442.908L372.229 441.746C378.291 444.833 380.65 444.121 388.306 441.027C394.928 438.352 397.243 436.935 400.784 430.209L401.946 430.703C399.026 437.178 398.084 440.206 396.533 447.091L385.442 499.47Z" fill="white"/>
<path d="M490.785 568.109C484.164 570.784 482.055 572.117 479.012 578.883L477.849 578.389C480.602 571.501 480.224 569.969 477.131 562.313L426.469 436.921C423.376 429.265 422.584 427.9 415.818 424.857L416.312 423.695C423.201 426.448 425.644 425.942 432.265 423.267L432.472 423.183C439.093 420.508 441.202 419.175 444.827 412.656L445.782 413.233C442.655 419.791 442.826 421.407 445.506 429.23L447.894 436.93L448.392 436.97C448.641 425.075 456.92 410.418 475.749 402.81C500.993 392.611 527.975 405.779 542.02 440.541C556.148 475.509 545.767 505.217 518.868 516.085C504.383 521.937 488.012 521.331 477.533 510.883L477.202 511.257C481.66 518.121 484.793 525.279 488.388 534.177L496.581 554.454C499.674 562.11 500.466 563.475 507.232 566.518L506.738 567.68C499.85 564.928 497.406 565.433 490.785 568.109ZM508.451 499.835C528.315 491.809 531.352 471.327 522.156 448.566C513.044 426.012 495.68 414.013 478.092 421.119C459.676 428.559 452.651 446.321 463.603 473.427C472.464 495.36 489.001 507.693 508.451 499.835Z" fill="white"/>
<path d="M634.459 469.383C604.043 481.672 573.992 468.06 560.365 434.332C546.906 401.019 558.648 369.317 589.065 357.028C619.481 344.738 649.743 359.469 663.203 392.783C676.829 426.51 664.876 457.094 634.459 469.383ZM627.521 452.209C646.35 444.602 652.992 424.107 643.211 399.897C633.597 376.102 614.212 366.845 596.003 374.202C577.588 381.642 570.074 401.767 579.688 425.562C589.469 449.772 608.484 459.9 627.521 452.209Z" fill="white"/>
</svg>
