<svg width="479" height="382" viewBox="0 0 479 382" fill="none" xmlns="http://www.w3.org/2000/svg">
<path d="M96.3691 321.476L94.9502 322.049C89.2748 324.342 87.4671 325.485 84.8587 331.284L83.8626 330.861C86.2221 324.957 85.8978 323.644 83.2465 317.081L39.8224 209.603C37.1711 203.041 36.4922 201.871 30.6932 199.262L31.116 198.266C37.0207 200.626 39.1149 200.192 44.7903 197.899L46.2092 197.326C51.8846 195.033 53.6922 193.89 56.3007 188.091L57.2968 188.514C54.9373 194.419 55.2615 195.732 57.9129 202.294L101.337 309.772C103.988 316.335 104.667 317.504 110.466 320.113L110.043 321.109C104.139 318.749 102.044 319.183 96.3691 321.476ZM146.9 202.032L147.187 202.741C149.48 208.417 150.623 210.224 156.422 212.833L155.928 213.652C151.34 211.998 147.895 212.152 143.993 213.728C128.031 220.178 122.572 233.73 128.591 248.628L146.004 291.726C148.655 298.288 149.334 299.458 155.133 302.066L154.71 303.062C148.805 300.703 146.711 301.136 141.213 303.358C135.715 305.579 133.907 306.722 131.299 312.521L130.303 312.098C132.662 306.194 132.338 304.88 129.687 298.318L99.4475 223.474C96.7962 216.911 96.1173 215.741 90.3183 213.133L90.7411 212.137C96.4684 214.568 98.74 214.063 104.061 211.913C109.381 209.763 111.366 208.549 113.798 202.822L114.794 203.244C112.434 209.149 112.758 210.462 115.41 217.024L118.348 224.296L118.951 224.258C117.742 213.606 125.521 203.243 132.54 199.169C137.042 196.525 142.537 193.273 145.609 188.112L146.533 188.358C144.174 194.262 144.607 196.356 146.9 202.032ZM235.675 268.287C209.604 278.821 183.846 267.153 172.166 238.243C160.629 209.689 170.694 182.516 196.766 171.982C222.837 161.449 248.776 174.075 260.313 202.63C271.993 231.539 261.747 257.754 235.675 268.287ZM229.728 253.567C245.867 247.046 251.561 229.479 243.177 208.728C234.937 188.332 218.321 180.397 202.713 186.703C186.928 193.08 180.488 210.33 188.728 230.726C197.112 251.477 213.411 260.159 229.728 253.567ZM379.696 211.337L379.273 212.333C373.368 209.974 371.274 210.407 365.776 212.629C360.278 214.85 358.47 215.993 355.862 221.792L354.866 221.369C357.225 215.464 356.901 214.151 354.25 207.589L334.544 158.816C329.313 145.869 319.451 139.331 307.745 144.061C293.202 149.937 287.921 163.417 292.937 175.832L312.571 224.428C315.222 230.991 315.901 232.16 321.7 234.769L321.277 235.765C315.373 233.405 313.278 233.839 307.78 236.06C302.282 238.282 300.475 239.425 297.866 245.224L296.87 244.801C299.229 238.896 298.905 237.583 296.254 231.021L266.015 156.176C263.363 149.614 262.684 148.444 256.885 145.836L257.308 144.839C263.036 147.271 265.307 146.765 270.628 144.616C275.949 142.466 277.934 141.251 280.365 135.524L281.361 135.947C279.001 141.852 279.325 143.165 281.622 149.87L283.809 155.795L284.236 155.829C284.562 147.445 289.632 134.462 306.126 127.798C323.685 120.704 341.259 128.457 349.141 147.967L370.567 200.997C373.218 207.559 373.897 208.729 379.696 211.337Z" fill="white"/>
</svg>
